<svg width="512" height="512" viewBox="0 0 512 512" fill="none" xmlns="http://www.w3.org/2000/svg" xmlns:xlink="http://www.w3.org/1999/xlink" class="h-full w-full" id="iconWithBackground"><rect id="r4" width="512" height="512" x="0" y="0" rx="256" fill="url(#linearGradient)" stroke="#000000" stroke-width="0" stroke-opacity="100%" paint-order="stroke"></rect><defs><linearGradient id="linearGradient" gradientUnits="userSpaceOnUse" gradientTransform="rotate(0)" style="transform-origin: center center;"><stop stop-color="#ffffff"></stop><stop offset="1" stop-color="#ffffff"></stop></linearGradient><radialGradient id="glare" cx="0" cy="0" r="1" gradientUnits="userSpaceOnUse" gradientTransform="translate(256) rotate(90) scale(512)"><stop stop-color="white"></stop><stop offset="1" stop-color="white" stop-opacity="0"></stop></radialGradient><clipPath id="clip"><use xlink:href="#r4"></use></clipPath></defs><svg xmlns="http://www.w3.org/2000/svg" xmlns:xlink="http://www.w3.org/1999/xlink" aria-hidden="true" role="img" x="61.5" y="61.5" class="iconify iconify--ep" width="389" height="389" viewBox="0 0 1024 1024" style="color: rgb(6, 182, 212);"><path fill="currentColor" d="M160 448a32 32 0 0 1-32-32V160.064a32 32 0 0 1 32-32h256a32 32 0 0 1 32 32V416a32 32 0 0 1-32 32H160zm448 0a32 32 0 0 1-32-32V160.064a32 32 0 0 1 32-32h255.936a32 32 0 0 1 32 32V416a32 32 0 0 1-32 32H608zM160 896a32 32 0 0 1-32-32V608a32 32 0 0 1 32-32h256a32 32 0 0 1 32 32v256a32 32 0 0 1-32 32H160zm448 0a32 32 0 0 1-32-32V608a32 32 0 0 1 32-32h255.936a32 32 0 0 1 32 32v256a32 32 0 0 1-32 32H608z"></path></svg></svg>